{
    "asset" : {
        "generator" : "Khronos glTF Blender I/O v1.8.19",
        "version" : "2.0"
    },
    "scene" : 0,
    "scenes" : [
        {
            "name" : "Scene",
            "nodes" : [
                0,
                1
            ]
        }
    ],
    "nodes" : [
        {
            "mesh" : 0,
            "name" : "Circle",
            "scale" : [
                0.8937801122665405,
                0.8937801122665405,
                0.8937801122665405
            ]
        },
        {
            "mesh" : 1,
            "name" : "Curve",
            "rotation" : [
                0,
                1,
                0,
                -1.6292068494294654e-07
            ],
            "scale" : [
                -254.35409545898438,
                -254.35409545898438,
                -254.35409545898438
            ],
            "translation" : [
                -0.8606123924255371,
                0.2761126756668091,
                0.8514569997787476
            ]
        }
    ],
    "materials" : [
        {
            "doubleSided" : true,
            "name" : "Material.001",
            "pbrMetallicRoughness" : {
                "baseColorFactor" : [
                    0.0018056409899145365,
                    0.0018056409899145365,
                    0.0018056409899145365,
                    1
                ],
                "metallicFactor" : 0,
                "roughnessFactor" : 0.7875000238418579
            }
        },
        {
            "doubleSided" : true,
            "name" : "SVGMat",
            "pbrMetallicRoughness" : {
                "baseColorFactor" : [
                    1,
                    1,
                    1,
                    1
                ],
                "metallicFactor" : 0,
                "roughnessFactor" : 0.4000000059604645
            }
        }
    ],
    "meshes" : [
        {
            "name" : "Circle",
            "primitives" : [
                {
                    "attributes" : {
                        "POSITION" : 0,
                        "NORMAL" : 1,
                        "TEXCOORD_0" : 2
                    },
                    "indices" : 3,
                    "material" : 0
                }
            ]
        },
        {
            "name" : "Curve",
            "primitives" : [
                {
                    "attributes" : {
                        "POSITION" : 4,
                        "NORMAL" : 5,
                        "TEXCOORD_0" : 6
                    },
                    "indices" : 7,
                    "material" : 1
                }
            ]
        }
    ],
    "accessors" : [
        {
            "bufferView" : 0,
            "componentType" : 5126,
            "count" : 128,
            "max" : [
                1,
                0.33796799182891846,
                1
            ],
            "min" : [
                -1,
                0,
                -1
            ],
            "type" : "VEC3"
        },
        {
            "bufferView" : 1,
            "componentType" : 5126,
            "count" : 128,
            "type" : "VEC3"
        },
        {
            "bufferView" : 2,
            "componentType" : 5126,
            "count" : 128,
            "type" : "VEC2"
        },
        {
            "bufferView" : 3,
            "componentType" : 5123,
            "count" : 372,
            "type" : "SCALAR"
        },
        {
            "bufferView" : 4,
            "componentType" : 5126,
            "count" : 1072,
            "max" : [
                0.006209015846252441,
                0.0003000000142492354,
                -0.0005643367767333984
            ],
            "min" : [
                0.0005644559860229492,
                -0.0003000000142492354,
                -0.006207704544067383
            ],
            "type" : "VEC3"
        },
        {
            "bufferView" : 5,
            "componentType" : 5126,
            "count" : 1072,
            "type" : "VEC3"
        },
        {
            "bufferView" : 6,
            "componentType" : 5126,
            "count" : 1072,
            "type" : "VEC2"
        },
        {
            "bufferView" : 7,
            "componentType" : 5123,
            "count" : 2124,
            "type" : "SCALAR"
        }
    ],
    "bufferViews" : [
        {
            "buffer" : 0,
            "byteLength" : 1536,
            "byteOffset" : 0
        },
        {
            "buffer" : 0,
            "byteLength" : 1536,
            "byteOffset" : 1536
        },
        {
            "buffer" : 0,
            "byteLength" : 1024,
            "byteOffset" : 3072
        },
        {
            "buffer" : 0,
            "byteLength" : 744,
            "byteOffset" : 4096
        },
        {
            "buffer" : 0,
            "byteLength" : 12864,
            "byteOffset" : 4840
        },
        {
            "buffer" : 0,
            "byteLength" : 12864,
            "byteOffset" : 17704
        },
        {
            "buffer" : 0,
            "byteLength" : 8576,
            "byteOffset" : 30568
        },
        {
            "buffer" : 0,
            "byteLength" : 4248,
            "byteOffset" : 39144
        }
    ],
    "buffers" : [
        {
            "byteLength" : 43392,
            "uri" : "data:application/octet-stream;base64,"
        }
    ]
}
